<svg xmlns="http://www.w3.org/2000/svg" width="24" height="24" viewBox="0 0 24 24" fill="none">
  <path d="M10.2 6.3C10.2 5.62 9.43 5.22 8.87 5.64L5.97 7.86C5.74 8.03 5.46 8.12 5.17 8.12H3.8C3.25 8.12 2.8 8.57 2.8 9.12V14.88C2.8 15.43 3.25 15.88 3.8 15.88H5.17C5.46 15.88 5.74 15.97 5.97 16.14L8.87 18.36C9.43 18.78 10.2 18.38 10.2 17.7V6.3Z" stroke="#F8FAFD" stroke-width="1.8" stroke-linejoin="round"/>
  <path d="M14.3 9.1C15.65 10.45 15.65 13.55 14.3 14.9" stroke="#F8FAFD" stroke-width="1.8" stroke-linecap="round"/>
  <path d="M17.05 6.55C19.76 9.26 19.76 14.74 17.05 17.45" stroke="#F8FAFD" stroke-width="1.8" stroke-linecap="round"/>
</svg>
